<svg xmlns="http://www.w3.org/2000/svg"><defs><font id="bebas_neue_regularregular" horiz-adv-x="796"><font-face units-per-em="2048" ascent="1536" descent="-512"/><glyph horiz-adv-x="0"/><glyph horiz-adv-x="682"/><glyph horiz-adv-x="317"/><glyph horiz-adv-x="317"/><glyph horiz-adv-x="317"/><glyph unicode="!" horiz-adv-x="323" d="M82 760v674h160V760l-21-443H102zM84 0v199h154V0H84z"/><glyph unicode="&quot;" horiz-adv-x="542" d="M82 1434h154l-23-387H102zm225 0h154l-23-387H328z"/><glyph unicode="#" horiz-adv-x="843" d="M47 432l12 115h117l45 420H100l13 114h118l37 353h131l-37-353h189l37 353h131l-37-353h115l-13-114H670l-43-420h114l-12-115H614L569 0H438l45 432H297L250 0H119l47 432H47zm260 115h189l43 420H352z"/><glyph unicode="$" horiz-adv-x="792" d="M74 358v88h149v-98q0-203 168-203t168 203q0 64-26.5 118.5t-68.5 95-93.5 79-102.5 80-93 89T106.5 925 80 1075q0 151 62.5 241.5T332 1427v115h131v-115q127-18 190.5-110.5T717 1075v-39H567v49q0 205-166 205-163 0-163-205 0-65 26.5-120t69-95 93.5-78.5 102.5-80 94-88.5 69-115T719 358q0-149-64.5-242.5T463 4v-108H332V4Q202 22 138 114.5T74 358z"/><glyph unicode="%" horiz-adv-x="1261" d="M74 758v452q0 107 52 169.5t153 62.5 152.5-62.5T483 1210V758q0-108-51.5-170T279 526t-153 62-52 170zm102-8q0-129 103-129 102 0 102 129v467q0 131-102 131-103 0-103-131V750zM295 0l565 1434h96L391 0h-96zm483 225v451q0 106 52 167.5T983 905q102 0 153.5-61t51.5-168V225q0-108-51-169.5T983-6Q882-6 830 55.5T778 225zm103-8q0-131 102-131t102 131v465q0 129-102 129T881 682V217z"/><glyph unicode="&amp;" horiz-adv-x="835" d="M84 315v140q0 110 42 188t128 111q-85 30-127.5 106T84 1047v32q0 172 85 263.5t253 91.5h231v-146H426q-184 0-184-203v-71q0-91 43.5-141.5T408 819h161v160h158V819h70V676h-70V182q0-64 5.5-104T758 0H596q-25 54-27 125Q507-14 344-14q-130 0-195 86.5T84 315zm158 13q0-197 166-197 71 0 114.5 41.5T569 295v381H420q-178-6-178-217V328z"/><glyph unicode="'" horiz-adv-x="309" d="M78 1434h153l-22-387H98z"/><glyph unicode="(" horiz-adv-x="493" d="M92 315v803q0 165 67 240.5t228 75.5h57v-131h-47q-81 0-114-44t-33-141V315q0-97 32.5-140.5T397 131h47V0h-57Q226 0 159 75T92 315z"/><glyph unicode=")" horiz-adv-x="493" d="M49 0v131h47q82 0 115 43.5T244 315v803q0 96-33.5 140.5T96 1303H49v131h57q161 0 228-75.5t67-240.5V315q0-165-67-240T106 0H49z"/><glyph unicode="*" horiz-adv-x="808" d="M37 1110l39 125 299-131-37 323h131l-35-323 299 129 39-125-319-64 217-239-105-78-162 285-159-285-105 78 215 239z"/><glyph unicode="+" horiz-adv-x="802" d="M61 659v115h283v285h115V774h282V659H459V371H344v288H61z"/><glyph unicode="," horiz-adv-x="327" d="M92 0v199h154V14l-80-194h-66L152 0H92z"/><glyph unicode="-" horiz-adv-x="542" d="M76 645v143h391V645H76z"/><glyph unicode="." horiz-adv-x="317" d="M82 0v199h154V0H82z"/><glyph unicode="/" horiz-adv-x="770" d="M33 0l565 1434h139L172 0H33z"/><glyph unicode="0" d="M70 348v739q0 169 83 265t244 96q162 0 246-96t84-265V348q0-169-84-265.5T397-14q-160 0-243.5 96.5T70 348zm157-10q0-99 42.5-153T397 131q86 0 128 54t42 153v758q0 209-170 209-85 0-127.5-54.5T227 1096V338z"/><glyph unicode="1" horiz-adv-x="692" d="M176 1112v131q56 2 98 17.5t70 43.5 45 58 33 72h110V0H375v1174q-90-56-199-62z"/><glyph unicode="2" horiz-adv-x="792" d="M82 0v123q0 94 26.5 177T178 445.5 272.5 566 376 680t95 113.5 69.5 131T567 1079q0 113-40.5 169.5T399 1305q-85 0-126.5-56T231 1094V967H82v116q0 170 80 267.5t241 97.5q162 0 243-96.5t81-266.5q0-88-27-169t-69.5-144.5-94.5-124-103.5-117T338 419t-70.5-119.5T240 168v-23h471V0H82z"/><glyph unicode="3" horiz-adv-x="792" d="M74 348v98h149V338q0-99 42-153t126-54q168 0 168 221v111q0 105-44.5 157.5T379 676h-86v143h94q81 3 126.5 54t45.5 143v65q0 224-168 224-84 0-126-55t-42-154v-74H74v65q0 169 80.5 265t240.5 96q161 0 242.5-96t81.5-265v-36q0-111-44-187T545 756q174-65 174-297V348q0-170-81.5-266T395-14q-160 0-240.5 96T74 348z"/><glyph unicode="4" horiz-adv-x="819" d="M45 289v145l444 1000h175V434h114V289H664V0H508v289H45zm148 145h315v701z"/><glyph unicode="5" horiz-adv-x="792" d="M76 348v96h149V338q0-99 42-153t126-54 126 54 42 153v278q0 99-42 153t-126 54q-141 0-162-153v-33H82l39 797h565v-144H264l-22-440q69 119 213 119 134 0 200-90t66-250V348q0-169-82-265.5T397-14 156.5 82 76 348z"/><glyph unicode="6" d="M72 348v731q0 176 81.5 272.5T401 1448q162 0 243-94.5t81-263.5v-27H575v37q0 205-169 205-90 0-132.5-57.5T231 1073V752q61 153 232 153 134 0 200-89.5T729 565V348q0-169-83.5-265.5T401-14q-162 0-245.5 96.5T72 348zm159-10q0-99 42-153t128-54q85 0 127.5 54T571 338v215q0 99-42.5 153T401 760q-86 0-128-54t-42-153V338z"/><glyph unicode="7" horiz-adv-x="792" d="M72 1290v144h649v-140L352 0H193l366 1290H72z"/><glyph unicode="8" horiz-adv-x="802" d="M63 344v107q0 236 166 303-166 64-166 295v45q0 168 87 261t251 93 251-93 87-261v-45q0-233-164-295 164-65 164-303V344q0-169-86.5-263.5T401-14 149.5 80.5 63 344zm158 4q0-217 180-217 178 0 181 217v121q0 207-181 207-180 0-180-207V348zm0 672q0-201 180-201 181 0 181 201v70q0 108-47 161.5T401 1305t-133.5-53.5T221 1090v-70z"/><glyph unicode="9" d="M68 868v219q0 169 82.5 265t244.5 96 246-96 84-265V356q0-176-82.5-273T393-14q-160 0-241.5 95.5T70 346v27h149v-37q0-99 42.5-152T389 131q91 0 133.5 56.5T565 360v322q-60-152-231-152-134 0-200 89T68 868zm157 13q0-99 42.5-153T395 674q86 0 128 54t42 153v215q0 207-170 207-85 0-127.5-53.5T225 1096V881z"/><glyph unicode=":" horiz-adv-x="317" d="M82 0v199h154V0H82zm0 780v199h154V780H82z"/><glyph unicode=";" horiz-adv-x="327" d="M92 0v199h154V14l-80-194h-66L152 0H92zm0 780v199h154V780H92z"/><glyph unicode="&lt;" horiz-adv-x="784" d="M68 659v115l634 260V918L217 717l485-201V399z"/><glyph unicode="=" horiz-adv-x="716" d="M76 528v115h565V528H76zm0 291v115h565V819H76z"/><glyph unicode="&gt;" horiz-adv-x="784" d="M82 399v117l485 201L82 918v116l635-260V659z"/><glyph unicode="?" horiz-adv-x="739" d="M55 967v116q0 169 79.5 267t238.5 98q161 0 240-96.5t79-266.5q0-96-29.5-176.5t-71-138-83-111-71-120.5T408 397q0-36 10-78H274q-10 42-10 82 0 86 27.5 158.5t67 126.5 79 109 67 131.5T532 1094q0 211-163 211-164 0-164-211V967H55zM268 0v199h152V0H268z"/><glyph unicode="@" horiz-adv-x="1411" d="M59 590q0 148 28 282t87.5 250.5 145.5 201 209.5 133T801 1505q121 0 216-29t159-81 105.5-126.5 60-162T1360 915q0-147-32-270t-84.5-202.5-119.5-123T985 276q-74 0-116 36.5T823 416q-65-143-211-140-111 1-156.5 85.5T424 590l22 205q14 143 78.5 222.5T700 1094q137 0 177-136l14 127h139l-61-587q-5-39 9-63.5t50-24.5q56 0 99 49t66 127 34 161 10 164q0 222-108.5 345.5T797 1380q-121 0-219.5-39t-169-109.5-118-170.5T220 841t-23-259q0-272 128.5-420T715 14q237 0 403 129L1106 2Q945-109 707-109q-166 0-291 49.5t-202.5 142T97.5 302 59 590zm506 6q-9-83 19.5-133t97.5-51 109 47.5T840 594l20 197q8 74-22.5 118.5T741 954q-69 1-108.5-44T584 780z"/><glyph unicode="A" horiz-adv-x="864" d="M41 0l274 1434h232L821 0H662l-56 289H244L188 0H41zm223 426h320l-162 827z"/><glyph unicode="B" horiz-adv-x="802" d="M82 0v1434h321q164 0 238-78.5t74-239.5v-67q0-118-38.5-187.5T547 764q192-54 192-307V336q0-164-81-250T412 0H82zm160 145h170q88 0 129 47.5T582 340v127q0 117-47.5 165T381 680H242V145zm0 680h123q100 0 146 41.5t46 149.5v84q0 97-36.5 142.5T399 1288H242V825z"/><glyph unicode="C" horiz-adv-x="778" d="M70 346v741q0 168 80.5 264.5T391 1448q161 0 242.5-96.5T715 1087V958H563v138q0 207-168 207-84 0-126-54t-42-153V338q0-99 42-153t126-54q168 0 168 207v186h152V346q0-168-81.5-264T391-14q-160 0-240.5 96T70 346z"/><glyph unicode="D" horiz-adv-x="811" d="M82 0v1434h336q163 0 244-93.5t81-263.5V354q0-169-81-261.5T418 0H82zm160 145h174q170 0 170 203v737q0 203-172 203H242V145z"/><glyph unicode="E" horiz-adv-x="737" d="M82 0v1434h590v-146H242V799h350V655H242V145h430V0H82z"/><glyph unicode="F" horiz-adv-x="696" d="M82 0v1434h569v-146H242V766h329V621H242V0H82z"/><glyph unicode="G" horiz-adv-x="784" d="M70 346v741q0 168 80.5 264.5T391 1448q161 0 242.5-96.5T715 1087V965H563v131q0 207-168 207-84 0-126-54t-42-153V338q0-99 42-153t126-54q168 0 168 207v287H416v143h299V346q0-168-81.5-264T391-14q-160 0-240.5 96T70 346z"/><glyph unicode="H" horiz-adv-x="835" d="M82 0v1434h160V788h352v646h160V0H594v645H242V0H82z"/><glyph unicode="I" horiz-adv-x="323" d="M82 0v1434h160V0H82z"/><glyph unicode="J" horiz-adv-x="522" d="M41 0v145q27-2 80-2 83 5 125.5 51T289 344v1090h157V354Q446 5 141-2 59-2 41 0z"/><glyph unicode="K" horiz-adv-x="837" d="M82 0v1434h160V741l381 693h161L422 780 797 0H633L326 623l-84-142V0H82z"/><glyph unicode="L" horiz-adv-x="690" d="M82 0v1434h160V145h409V0H82z"/><glyph unicode="M" horiz-adv-x="1071" d="M80 0v1434h223L539 289l227 1145h223V0H838v1153L610 2H457L219 1143V0H80z"/><glyph unicode="N" horiz-adv-x="837" d="M80 0v1434h203L614 397v1037h142V0H590L223 1159V0H80z"/><glyph unicode="O" d="M70 346v741q0 169 83 265t244 96q162 0 246-96t84-265V346q0-167-84-263.5T397-14q-160 0-243.5 96.5T70 346zm157-8q0-100 42.5-153.5T397 131q170 0 170 207v758q0 99-42 153t-128 54q-85 0-127.5-54T227 1096V338z"/><glyph unicode="P" horiz-adv-x="765" d="M82 0v1434h313q164 0 243-91.5t79-259.5V911q0-346-334-346H242V0H82zm160 709h141q91 0 133.5 45.5T559 901v191q0 100-39 148t-125 48H242V709z"/><glyph unicode="Q" horiz-adv-x="823" d="M70 346v741q0 169 83 265t244 96q162 0 246-96t84-265V346q0-138-55-223 12-25 32.5-35T760 78h20V-63h-26q-132 0-183 92-72-43-174-43-160 0-243.5 96.5T70 346zm157-8q0-100 42.5-153.5T397 131q170 0 170 207v758q0 99-42 153t-128 54q-85 0-127.5-54T227 1096V338z"/><glyph unicode="R" horiz-adv-x="806" d="M82 0v1434h319q166 0 243-82.5t77-245.5V989q0-239-178-295 95-28 137.5-103.5T723 395V172q0-119 29-172H590q-27 62-27 174v225q0 117-52 165t-157 48H242V0H82zm160 758h118q102 0 152.5 42.5T563 954v138q0 99-39.5 147.5T397 1288H242V758z"/><glyph unicode="S" horiz-adv-x="761" d="M59 344v82h150v-90q0-205 168-205t168 205q0 64-26.5 120T450 555t-93.5 84.5-102.5 86-93 94-68.5 119T66 1090q0 170 79.5 264t237.5 94q159 0 239-95t80-263v-39H551v47q0 205-164 205t-164-203q0-65 26.5-121.5t69-99.5 94-84.5 103-86 94-94 69-119T705 344q0-167-82-262.5T381-14 140 81 59 344z"/><glyph unicode="T" horiz-adv-x="743" d="M27 1288v146h688v-146H451V0H291v1288H27z"/><glyph unicode="U" horiz-adv-x="792" d="M76 346v1088h157V338q0-207 168-207 166 0 166 207v1096h150V346q0-169-80.5-265.5T395-16q-159 0-239 96.5T76 346z"/><glyph unicode="V" horiz-adv-x="856" d="M41 1434h162L436 186l232 1248h147L547 0H311z"/><glyph unicode="W" horiz-adv-x="1193" d="M47 1434h156L371 213l159 1219h158L846 211l162 1223h139L952 0H741L604 973 463 0H244z"/><glyph unicode="X" horiz-adv-x="890" d="M47 0l289 739-270 695h165l222-574 223 574h149L557 739 844 0H676L438 618 199 0H47z"/><glyph unicode="Y" horiz-adv-x="831" d="M33 1434h166l223-705 225 705h152L494 514V0H336v514z"/><glyph unicode="Z" horiz-adv-x="776" d="M59 0v143l492 1145H82v146h633v-144L221 145h490V0H59z"/><glyph unicode="[" horiz-adv-x="495" d="M92 0v1434h346v-131H250V131h188V0H92z"/><glyph unicode="\" horiz-adv-x="770" d="M33 1434h139L737 0H598z"/><glyph unicode="]" horiz-adv-x="495" d="M57 0v131h187v1172H57v131h346V0H57z"/><glyph unicode="^" horiz-adv-x="825" d="M55 799l299 635h117l299-635H641l-229 489-228-489H55z"/><glyph unicode="_" horiz-adv-x="1038" d="M27-20h977v-117H27v117z"/><glyph unicode="`" horiz-adv-x="456" d="M88 1737h166l141-211H279z"/><glyph unicode="a" horiz-adv-x="864" d="M41 0l274 1434h232L821 0H662l-56 289H244L188 0H41zm223 426h320l-162 827z"/><glyph unicode="b" horiz-adv-x="802" d="M82 0v1434h321q164 0 238-78.5t74-239.5v-67q0-118-38.5-187.5T547 764q192-54 192-307V336q0-164-81-250T412 0H82zm160 145h170q88 0 129 47.5T582 340v127q0 117-47.5 165T381 680H242V145zm0 680h123q100 0 146 41.5t46 149.5v84q0 97-36.5 142.5T399 1288H242V825z"/><glyph unicode="c" horiz-adv-x="778" d="M70 346v741q0 168 80.5 264.5T391 1448q161 0 242.5-96.5T715 1087V958H563v138q0 207-168 207-84 0-126-54t-42-153V338q0-99 42-153t126-54q168 0 168 207v186h152V346q0-168-81.5-264T391-14q-160 0-240.5 96T70 346z"/><glyph unicode="d" horiz-adv-x="811" d="M82 0v1434h336q163 0 244-93.5t81-263.5V354q0-169-81-261.5T418 0H82zm160 145h174q170 0 170 203v737q0 203-172 203H242V145z"/><glyph unicode="e" horiz-adv-x="737" d="M82 0v1434h590v-146H242V799h350V655H242V145h430V0H82z"/><glyph unicode="f" horiz-adv-x="696" d="M82 0v1434h569v-146H242V766h329V621H242V0H82z"/><glyph unicode="g" horiz-adv-x="784" d="M70 346v741q0 168 80.5 264.5T391 1448q161 0 242.5-96.5T715 1087V965H563v131q0 207-168 207-84 0-126-54t-42-153V338q0-99 42-153t126-54q168 0 168 207v287H416v143h299V346q0-168-81.5-264T391-14q-160 0-240.5 96T70 346z"/><glyph unicode="h" horiz-adv-x="835" d="M82 0v1434h160V788h352v646h160V0H594v645H242V0H82z"/><glyph unicode="i" horiz-adv-x="323" d="M82 0v1434h160V0H82z"/><glyph unicode="j" horiz-adv-x="522" d="M41 0v145q27-2 80-2 83 5 125.5 51T289 344v1090h157V354Q446 5 141-2 59-2 41 0z"/><glyph unicode="k" horiz-adv-x="837" d="M82 0v1434h160V741l381 693h161L422 780 797 0H633L326 623l-84-142V0H82z"/><glyph unicode="l" horiz-adv-x="690" d="M82 0v1434h160V145h409V0H82z"/><glyph unicode="m" horiz-adv-x="1071" d="M80 0v1434h223L539 289l227 1145h223V0H838v1153L610 2H457L219 1143V0H80z"/><glyph unicode="n" horiz-adv-x="837" d="M80 0v1434h203L614 397v1037h142V0H590L223 1159V0H80z"/><glyph unicode="o" d="M70 346v741q0 169 83 265t244 96q162 0 246-96t84-265V346q0-167-84-263.5T397-14q-160 0-243.5 96.5T70 346zm157-8q0-100 42.5-153.5T397 131q170 0 170 207v758q0 99-42 153t-128 54q-85 0-127.5-54T227 1096V338z"/><glyph unicode="p" horiz-adv-x="759" d="M82 0v1434h313q164 0 243-91.5t79-259.5V911q0-346-334-346H242V0H82zm160 709h141q91 0 133.5 45.5T559 901v191q0 100-39 148t-125 48H242V709z"/><glyph unicode="q" horiz-adv-x="802" d="M70 346v741q0 169 83 265t244 96q162 0 246-96t84-265V346q0-138-55-223 12-25 32.5-35T760 78h20V-63h-26q-132 0-183 92-72-43-174-43-160 0-243.5 96.5T70 346zm157-8q0-100 42.5-153.5T397 131q170 0 170 207v758q0 99-42 153t-128 54q-85 0-127.5-54T227 1096V338z"/><glyph unicode="r" horiz-adv-x="806" d="M82 0v1434h319q166 0 243-82.5t77-245.5V989q0-239-178-295 95-28 137.5-103.5T723 395V172q0-119 29-172H590q-27 62-27 174v225q0 117-52 165t-157 48H242V0H82zm160 758h118q102 0 152.5 42.5T563 954v138q0 99-39.5 147.5T397 1288H242V758z"/><glyph unicode="s" horiz-adv-x="761" d="M59 344v82h150v-90q0-205 168-205t168 205q0 64-26.5 120T450 555t-93.5 84.5-102.5 86-93 94-68.5 119T66 1090q0 170 79.5 264t237.5 94q159 0 239-95t80-263v-39H551v47q0 205-164 205t-164-203q0-65 26.5-121.5t69-99.5 94-84.5 103-86 94-94 69-119T705 344q0-167-82-262.5T381-14 140 81 59 344z"/><glyph unicode="t" horiz-adv-x="737" d="M25 1288v146h686v-146H446V0H289v1288H25z"/><glyph unicode="u" horiz-adv-x="792" d="M76 346v1088h157V338q0-207 168-207 166 0 166 207v1096h150V346q0-169-80.5-265.5T395-16q-159 0-239 96.5T76 346z"/><glyph unicode="v" horiz-adv-x="856" d="M41 1434h162L436 186l232 1248h147L547 0H311z"/><glyph unicode="w" horiz-adv-x="1193" d="M47 1434h156L371 213l159 1219h158L846 211l162 1223h139L952 0H741L604 973 463 0H244z"/><glyph unicode="x" horiz-adv-x="890" d="M47 0l289 739-270 695h165l222-574 223 574h149L557 739 844 0H676L438 618 199 0H47z"/><glyph unicode="y" horiz-adv-x="831" d="M33 1434h166l223-705 225 705h152L494 514V0H336v514z"/><glyph unicode="z" horiz-adv-x="776" d="M59 0v143l492 1145H82v146h633v-144L221 145h490V0H59z"/><glyph unicode="{" horiz-adv-x="526" d="M41 649v135q71 6 94.5 38.5T164 936l14 278q16 220 205 220h94v-131h-39q-62 0-86.5-36.5T322 1145l-13-232q-2-36-7.5-63.5t-19-55T242 747t-66-30q74-20 101.5-70T309 520l13-231q5-85 29.5-121.5T438 131h39V0h-94Q194 0 178 219l-14 279q-5 80-28.5 112.5T41 649z"/><glyph unicode="|" horiz-adv-x="763" d="M324-90v1614h131V-90H324z"/><glyph unicode="}" horiz-adv-x="526" d="M49 0v131h39q62 0 87 36.5T205 289l12 231q2 37 7.5 64t18.5 55 40 48 67 30q-32 8-56 23.5t-38 33-22.5 42-12 46.5-4.5 51l-12 232q-5 85-30 121.5T88 1303H49v131h94q94 0 145.5-57t57.5-163l16-278q5-81 27.5-113.5T483 784V649q-71-6-93.5-38T362 498l-16-279q-6-106-57.5-162.5T143 0H49z"/><glyph unicode="~" horiz-adv-x="811" d="M37 678q59 88 109.5 125T256 840q39 1 84-19t78.5-43.5T492 734t71-19q36 0 63.5 25t69.5 87l78-77q-56-86-104.5-121T563 592q-39-1-83 19t-77.5 44-74 44-72.5 20q-39 0-68.5-25.5T115 604z"/><glyph unicode="¡" horiz-adv-x="323" d="M82 0v633l20 483h119l21-483V0H82zm2 1237v197h154v-197H84z"/><glyph unicode="¢" horiz-adv-x="792" d="M76 436v561q0 150 63.5 243.5T330 1352v102h131v-100q130-17 195-108.5t65-241.5v-82H571v90q0 202-168 202-167 0-167-206V426q0-205 167-205 168 0 168 205v137h150V436q0-152-65-244.5T461 82V-20H330V82q-127 18-190.5 111.5T76 436z"/><glyph unicode="£" horiz-adv-x="800" d="M68 0v139q90 36 147.5 121.5T266 461H96v125h150q-15 48-45 110t-52.5 107.5T108 924t-18 161q0 170 79.5 266.5T410 1448q159 0 238-98t79-267V969H575v123q0 211-161 211-164 0-164-209 0-86 17.5-162T307 810t50-109.5T399 586h275V461H410q2-85-31.5-160T268 145h453V0H68z"/><glyph unicode="¤" horiz-adv-x="761" d="M72 471l104 104q-45 61-45 142 0 82 45 139L72 963l63 63 107-104q61 45 139 45 77 0 141-45l105 104 65-63-106-107q45-61 45-139 0-81-45-142l106-104-65-63-105 102q-62-43-141-43-76 0-141 43L135 408zm157 246q0-63 44.5-107.5T381 565t108.5 44.5T535 717t-45.5 107T381 868t-107.5-44T229 717z"/><glyph unicode="¥" horiz-adv-x="847" d="M37 1434h166l227-701 229 701h152L514 559h195v-84H504V354h205v-82H504V0H344v272H139v82h205v121H139v84h193z"/><glyph unicode="¦" horiz-adv-x="765" d="M324-90v684h131V-90H324zm0 930v684h131V840H324z"/><glyph unicode="§" horiz-adv-x="792" d="M76 127v84h151v-64q0-73 46.5-115T393-10q69 0 116 37.5T557 133q1 43-25 76t-68.5 56.5-94 45.5-103 50.5-94 64T104 518 78 649q0 87 48.5 154T256 907q-85 49-132.5 110T76 1176q2 124 88 198t233 74q146 0 231-73.5t85-196.5v-56H561v35q0 71-44.5 114.5T401 1315q-73 0-119-37.5T236 1169q-1-42 25-75t68.5-56 93.5-45.5 102.5-51 94-64.5 69-94T715 651q0-86-45.5-153.5T545 391q81-44 127-106t45-158Q715 7 627-68t-230-75q-149 0-235 72.5T76 127zm153 528q-1-40 13.5-71.5t45-55.5 56.5-39 68-34q66 15 108.5 67.5T563 647q0 70-45 114.5T391 844q-68-11-115-64t-47-125z"/><glyph unicode="¨" horiz-adv-x="448" d="M72 1518v184h139v-184H72zm166 0v184h139v-184H238z"/><glyph unicode="©" horiz-adv-x="1519" d="M55 717q0 206 91 372t252.5 259.5T760 1442q150 0 281-55t223.5-150.5 146-230.5 53.5-289-53.5-289-146-230.5T1041 47 760-8Q560-8 398.5 85.5T146 345 55 717zm105 0q0-176 77.5-318.5t215-223.5T760 94t307.5 81 215 223.5T1360 717t-77.5 318-215 223-307.5 81-307.5-81-215-223T160 717zm368-199v395q0 119 56 186.5t168 67.5q111 0 167-67.5T975 913v-61H868v70q0 141-114 141-57 0-86-37t-29-104V512q0-67 29-104t86-37q114 0 114 141v100h107v-94q0-118-56-185t-167-67q-112 0-168 67t-56 185z"/><glyph unicode="ª" horiz-adv-x="563" d="M68 877v8q0 57 17.5 100t46 69.5T202 1098t85.5 24 97.5 8v103q0 117-88 117-102 0-102-125v-37H98v31q0 106 50 165.5t153 59.5q186 0 186-225V684h-88l-6 113q-40-123-160-123-82 0-123.5 52.5T68 877zm2-412v102h417V465H70zm102 420q0-115 100-115 51 0 79 32t34 89v162q-101-5-157-44t-56-110v-14z"/><glyph unicode="«" horiz-adv-x="655" d="M49 719l129 514h146L195 719l129-535H178zm283 0l131 514h143L477 719l129-535H463z"/><glyph unicode="¬" horiz-adv-x="794" d="M61 659v115h672V383H618v276H61z"/><glyph unicode="­" horiz-adv-x="542" d="M76 645v143h391V645H76z"/><glyph unicode="®" horiz-adv-x="1519" d="M55 717q0 206 91 372t252.5 259.5T760 1442q150 0 281-55t223.5-150.5 146-230.5 53.5-289-53.5-289-146-230.5T1041 47 760-8Q560-8 398.5 85.5T146 345 55 717zm105 0q0-176 77.5-318.5t215-223.5T760 94t307.5 81 215 223.5T1360 717t-77.5 318-215 223-307.5 81-307.5-81-215-223T160 717zm387-438v876h223q115 0 169-57.5T993 926v-21q0-163-119-207 119-40 119-204v-95q0-80 23-120H899q-16 39-16 120v95q0 82-37.5 114.5T733 641h-76V279H547zm110 466h93q66 0 98.5 31T881 881v32q0 70-27 105t-90 35H657V745z"/><glyph unicode="¯" horiz-adv-x="514" d="M41 1524v114h434v-114H41z"/><glyph unicode="°" horiz-adv-x="448" d="M47 1274q0 73 52 124.5t124 51.5q74 0 126-51.5t52-124.5-52-124.5-126-51.5q-72 0-124 51.5T47 1274zm76 0q0-41 29.5-70.5T223 1174q42 0 72.5 29.5T326 1274q0 42-30.5 71t-72.5 29-71-29-29-71z"/><glyph unicode="±" horiz-adv-x="802" d="M76 371v114h268v203H76v115h268v256h115V803h268V688H459V485h268V371H76z"/><glyph unicode="²" horiz-adv-x="563" d="M84 719v78q0 68 23 128.5t57 102.5 74.5 87 74.5 84 57 93.5 23 114.5q0 139-106 139-105 0-105-133v-78H84v72q0 108 51.5 170.5T291 1640q103 0 154-61.5t51-169.5q0-65-22.5-124.5t-57-102.5-74-88.5-74-83.5-58-87-24.5-98v-12h299v-94H84z"/><glyph unicode="³" horiz-adv-x="563" d="M76 940v61h98v-69q0-129 105-129 106 0 106 139v70q0 133-113 133h-55v94h59q50 0 79.5 33.5T385 1364v41q0 139-106 139-105 0-105-129v-47H76v39q0 109 52 170t155 61q102 0 153-61t51-170v-23q0-143-106-186 106-40 106-188v-70q0-109-51-170t-153-61q-103 0-155 61T76 940z"/><glyph unicode="´" horiz-adv-x="456" d="M63 1526l144 211h158l-191-211H63z"/><glyph unicode="µ" horiz-adv-x="815" d="M80-188v1212h160V340q0-99 41.5-153T406 133t124 54 41 153v684h160V0H586v147q-28-74-84-117.5T379-14q-52 0-87.5 25.5T240 80v-268H80z"/><glyph unicode="¶" horiz-adv-x="811" d="M39 911v176q0 347 309 347h369V-129H600v1446H416V-129H299l2 696q-131 3-196.5 93.5T39 911z"/><glyph unicode="·" horiz-adv-x="317" d="M82 627v198h154V627H82z"/><glyph unicode="¸" horiz-adv-x="509" d="M63-168h109v-14q0-31 23.5-45.5T252-244q35 0 58.5 17t23.5 51q0 65-96 65h-17V18h72v-98q74 0 112.5-22.5T444-180q0-38-15-63.5T386-282t-59.5-18-74.5-5q-84 0-136.5 28.5T63-184v16z"/><glyph unicode="¹" horiz-adv-x="387" d="M61 1434v75q67 1 100.5 31.5T217 1628h72V719H186v751q-52-30-125-36z"/><glyph unicode="º" horiz-adv-x="567" d="M74 901v313q0 106 53 168t156 62 157-62 54-168V901q0-106-54-167.5T283 672t-156 61.5T74 901zm2-434v102h418V467H76zm100 428q0-129 107-129 106 0 106 129v326q0 129-106 129-107 0-107-129V895z"/><glyph unicode="»" horiz-adv-x="655" d="M49 184l129 535-129 514h144l131-514-131-535H49zm283 0l129 535-129 514h143l131-514-131-535H332z"/><glyph unicode="¼" horiz-adv-x="1181" d="M117 1239v76q67 1 99.5 31.5T272 1434h72V524H242v752q-54-31-125-37zM279 0l565 1434h96L375 0h-96zm383 180v96l280 633h115V276h69v-96h-69V0H954v180H662zm94 96h198v435z"/><glyph unicode="½" horiz-adv-x="1226" d="M117 1239v76q67 1 99.5 31.5T272 1434h72V524H242v752q-54-31-125-37zM238 0l565 1434h96L334 0h-96zm510 0v78q0 68 23 128.5T828 309t74.5 87 74.5 84 57 93.5 23 114.5q0 139-107 139-104 0-104-133v-78h-98v72q0 109 51 171.5T954 922q103 0 154-62t51-170q0-76-31.5-144T1051 427t-90-99-77.5-104.5T850 109V94h299V0H748z"/><glyph unicode="¾" horiz-adv-x="1232" d="M76 745v62h98v-70q0-129 105-129 106 0 106 140v69q0 133-113 133h-55v94h59q50 0 79.5 33.5T385 1169v41q0 140-106 140-105 0-105-129v-47H76v38q0 109 52 170.5t155 61.5q102 0 153-61.5t51-170.5v-22q0-143-106-186 106-40 106-189v-70q0-109-51-170t-153-61q-103 0-155 61T76 745zM344 0l565 1434h97L440 0h-96zm369 180v96l280 633h115V276h70v-96h-70V0h-102v180H713zm94 96h199v435z"/><glyph unicode="¿" horiz-adv-x="739" d="M49 348q0 81 21 152t52.5 119.5 68 99.5 68 93.5 52.5 101 21 122.5q0 45-8 78h141q12-38 12-82 0-73-20.5-137T406 787t-65-94-64.5-95.5T227 485t-20-145q0-211 164-211t164 211v127h151V350q0-169-79.5-266.5T367-14q-161 0-239.5 96T49 348zm270 887v199h154v-199H319z"/><glyph unicode="À" horiz-adv-x="864" d="M41 0l274 1434h232L821 0H662l-56 289H244L188 0H41zm184 1720h164l143-211H416zm39-1294h320l-162 827z"/><glyph unicode="Á" horiz-adv-x="864" d="M41 0l274 1434h232L821 0H662l-56 289H244L188 0H41zm223 426h320l-162 827zm60 1083l143 211h158l-189-211H324z"/><glyph unicode="Â" horiz-adv-x="864" d="M41 0l274 1434h232L821 0H662l-56 289H244L188 0H41zm141 1509l176 205h144l176-205H539l-109 121-108-121H182zm82-1083h320l-162 827z"/><glyph unicode="Ã" horiz-adv-x="864" d="M41 0l274 1434h232L821 0H662l-56 289H244L188 0H41zm139 1573q45 116 150 119 45 0 102.5-31t85.5-31q55 3 82 62l80-56q-48-116-145-116-44-1-102 29t-87 30-49-13.5-37-47.5zm84-1147h320l-162 827z"/><glyph unicode="Ä" horiz-adv-x="864" d="M41 0l274 1434h232L821 0H662l-56 289H244L188 0H41zm192 1509v185h140v-185H233zm31-1083h320l-162 827zm223 1083v185h140v-185H487z"/><glyph unicode="Å" horiz-adv-x="864" d="M41 0l274 1434h232L821 0H662l-56 289H244L188 0H41zm223 426h320l-162 827zm15 1233q0 63 43.5 106t107.5 43q63 0 106.5-43t43.5-106q0-64-43.5-107T430 1509q-65 0-108 43t-43 107zm75 0q0-32 22-53t54-21q31 0 52.5 21t21.5 53q0 31-21.5 52.5T430 1733q-32 0-54-21.5t-22-52.5z"/><glyph unicode="Æ" horiz-adv-x="1198" d="M33 0l446 1434h654v-146H727V799h330V655H727V145h406V0H569v291H276L184 0H33zm280 430h256v803z"/><glyph unicode="Ç" horiz-adv-x="778" d="M70 346v741q0 168 80.5 264.5T391 1448q161 0 242.5-96.5T715 1087V958H563v138q0 207-168 207-84 0-126-54t-42-153V338q0-99 42-153t126-54q168 0 168 207v186h152V346q0-159-72.5-254T426-12v-64q72 0 112-27.5t40-76.5q0-62-51.5-96.5T383-311q-89 0-138.5 33.5T195-184v16h104v-14q0-25 22-41t62-19q41 0 64.5 17.5T471-176q0 29-26.5 45T371-115h-19v103Q211-2 140.5 93T70 346z"/><glyph unicode="È" horiz-adv-x="737" d="M82 0v1434h590v-146H242V799h350V655H242V145h430V0H82zm94 1731h166l141-211H367z"/><glyph unicode="É" horiz-adv-x="737" d="M82 0v1434h590v-146H242V799h350V655H242V145h430V0H82zm197 1513l143 211h158l-191-211H279z"/><glyph unicode="Ê" horiz-adv-x="737" d="M82 0v1434h590v-146H242V799h350V655H242V145h430V0H82zm45 1513l176 207h141l179-207H483l-110 123-107-123H127z"/><glyph unicode="Ë" horiz-adv-x="737" d="M82 0v1434h590v-146H242V799h350V655H242V145h430V0H82zm96 1513v185h139v-185H178zm254 0v185h139v-185H432z"/><glyph unicode="Ì" horiz-adv-x="323" d="M-51 1724h166l143-211H139zM82 0v1434h160V0H82z"/><glyph unicode="Í" horiz-adv-x="323" d="M63 1513l142 211h160l-191-211H63zM82 0v1434h160V0H82z"/><glyph unicode="Î" horiz-adv-x="323" d="M-86 1513l176 205h141l179-205H270l-108 121-109-121H-86zM82 0v1434h160V0H82z"/><glyph unicode="Ï" horiz-adv-x="323" d="M-35 1513v185h139v-185H-35zM82 0v1434h160V0H82zm137 1513v185h139v-185H219z"/><glyph unicode="Ð" horiz-adv-x="811" d="M-2 651v131h84v652h336q163 0 244-93.5t81-263.5V354q0-169-81-261.5T418 0H82v651H-2zm244-506h174q170 0 170 203v737q0 203-172 203H242V782h159V651H242V145z"/><glyph unicode="Ñ" horiz-adv-x="837" d="M80 0v1434h203L614 397v1037h142V0H590L223 1159V0H80zm90 1581q47 119 152 119 43 0 100.5-30.5T508 1640q54 0 82 60l80-53q-48-119-146-119-43-1-101 29.5t-87 29.5q-56 0-86-59z"/><glyph unicode="Ò" d="M70 346v741q0 169 83 265t244 96q162 0 246-96t84-265V346q0-167-84-263.5T397-14q-160 0-243.5 96.5T70 346zm120 1385h166l142-211H381zm37-1393q0-100 42.5-153.5T397 131q170 0 170 207v758q0 99-42 153t-128 54q-85 0-127.5-54T227 1096V338z"/><glyph unicode="Ó" d="M70 346v741q0 169 83 265t244 96q162 0 246-96t84-265V346q0-167-84-263.5T397-14q-160 0-243.5 96.5T70 346zm157-8q0-100 42.5-153.5T397 131q170 0 170 207v758q0 99-42 153t-128 54q-85 0-127.5-54T227 1096V338zm72 1182l143 211h158l-190-211H299z"/><glyph unicode="Ô" d="M70 346v741q0 169 83 265t244 96q162 0 246-96t84-265V346q0-167-84-263.5T397-14q-160 0-243.5 96.5T70 346zm80 1172l176 206h141l178-206H506l-111 120-106-120H150zm77-1180q0-100 42.5-153.5T397 131q170 0 170 207v758q0 99-42 153t-128 54q-85 0-127.5-54T227 1096V338z"/><glyph unicode="Õ" d="M70 346v741q0 169 83 265t244 96q162 0 246-96t84-265V346q0-167-84-263.5T397-14q-160 0-243.5 96.5T70 346zm82 1233q48 116 151 119 44 0 102.5-31t86.5-31q26 2 45 16t36 46l78-56q-44-116-145-116-42-1-101 29t-88 30q-55 0-86-61zm75-1241q0-100 42.5-153.5T397 131q170 0 170 207v758q0 99-42 153t-128 54q-85 0-127.5-54T227 1096V338z"/><glyph unicode="Ö" d="M70 346v741q0 169 83 265t244 96q162 0 246-96t84-265V346q0-167-84-263.5T397-14q-160 0-243.5 96.5T70 346zm131 1172v184h139v-184H201zm26-1180q0-100 42.5-153.5T397 131q170 0 170 207v758q0 99-42 153t-128 54q-85 0-127.5-54T227 1096V338zm228 1180v184h139v-184H455z"/><glyph unicode="×" horiz-adv-x="749" d="M80 500l215 217L80 932l78 78 217-215 217 215 78-78-217-215 217-217-78-78-217 217-217-217z"/><glyph unicode="Ø" d="M70 346v741q0 169 83 265t244 96q128 0 211-64l37 101 72-27-51-135q61-91 61-236V346q0-167-84-263.5T397-14q-131 0-209 63L150-53 80-27l51 138q-61 91-61 235zm157 23l318 848q-42 86-148 86-85 0-127.5-54T227 1096V369zm23-154q43-84 147-84 170 0 170 207v723z"/><glyph unicode="Ù" horiz-adv-x="792" d="M76 346v1088h157V338q0-207 168-207 166 0 166 207v1096h150V346q0-169-80.5-265.5T395-16q-159 0-239 96.5T76 346zm112 1378h166l144-211H379z"/><glyph unicode="Ú" horiz-adv-x="792" d="M76 346v1088h157V338q0-207 168-207 166 0 166 207v1096h150V346q0-169-80.5-265.5T395-16q-159 0-239 96.5T76 346zm229 1174l144 211h157l-190-211H305z"/><glyph unicode="Û" horiz-adv-x="792" d="M76 346v1088h157V338q0-207 168-207 166 0 166 207v1096h150V346q0-169-80.5-265.5T395-16q-159 0-239 96.5T76 346zm76 1172l176 206h141l178-206H508l-111 120-106-120H152z"/><glyph unicode="Ü" horiz-adv-x="792" d="M76 346v1088h157V338q0-207 168-207 166 0 166 207v1096h150V346q0-169-80.5-265.5T395-16q-159 0-239 96.5T76 346zm125 1170v184h141v-184H201zm256 0v184h139v-184H457z"/><glyph unicode="Ý" horiz-adv-x="831" d="M33 1434h166l223-705 225 705h152L494 514V0H336v514zm295 79l143 211h158l-191-211H328z"/><glyph unicode="Þ" horiz-adv-x="772" d="M82 0v1434h160v-207h153q164 0 243-91.5T717 874V705q0-349-334-349H242V0H82zm160 502h141q91 0 133.5 44.5T559 694v191q0 99-39 147.5T395 1081H242V502z"/><glyph unicode="ß" horiz-adv-x="1492" d="M55 344v82h150v-90q0-205 168-205t168 205q0 64-26.5 120t-69 99-93.5 84-102 86-93.5 94.5-69 119T61 1090q0 170 80 264t238 94q160 0 239.5-95t79.5-263v-39H547v47q0 205-164 205t-164-203q0-65 26.5-121.5t69-99.5 93.5-84.5 102.5-86 94-94 69-119T700 344q0-168-81-263T377-14q-160 0-241 95T55 344zm738 0v82h151v-90q0-205 168-205t168 205q0 64-26.5 120t-69 99-94 84T988 725t-93.5 94.5-69 119T799 1090q0 170 80.5 264t238.5 94 238-95 80-263v-39h-150v47q0 205-164 205t-164-203q0-65 26.5-121.5t69-99.5 93.5-84.5 102-86 93.5-94 69-119T1438 344q0-168-81-263t-241-95q-161 0-242 95t-81 263z"/><glyph unicode="à" horiz-adv-x="864" d="M41 0l274 1434h232L821 0H662l-56 289H244L188 0H41zm184 1720h164l143-211H416zm39-1294h320l-162 827z"/><glyph unicode="á" horiz-adv-x="864" d="M41 0l274 1434h232L821 0H662l-56 289H244L188 0H41zm223 426h320l-162 827zm60 1083l143 211h158l-189-211H324z"/><glyph unicode="â" horiz-adv-x="864" d="M41 0l274 1434h232L821 0H662l-56 289H244L188 0H41zm141 1509l176 205h144l176-205H539l-109 121-108-121H182zm82-1083h320l-162 827z"/><glyph unicode="ã" horiz-adv-x="864" d="M41 0l274 1434h232L821 0H662l-56 289H244L188 0H41zm139 1573q45 116 150 119 45 0 102.5-31t85.5-31q55 3 82 62l80-56q-48-116-145-116-44-1-102 29t-87 30-49-13.5-37-47.5zm84-1147h320l-162 827z"/><glyph unicode="ä" horiz-adv-x="864" d="M41 0l274 1434h232L821 0H662l-56 289H244L188 0H41zm192 1509v185h140v-185H233zm31-1083h320l-162 827zm223 1083v185h140v-185H487z"/><glyph unicode="å" horiz-adv-x="864" d="M41 0l274 1434h232L821 0H662l-56 289H244L188 0H41zm223 426h320l-162 827zm15 1233q0 63 43.5 106t107.5 43q63 0 106.5-43t43.5-106q0-64-43.5-107T430 1509q-65 0-108 43t-43 107zm75 0q0-32 22-53t54-21q31 0 52.5 21t21.5 53q0 31-21.5 52.5T430 1733q-32 0-54-21.5t-22-52.5z"/><glyph unicode="æ" horiz-adv-x="1198" d="M33 0l446 1434h654v-146H727V799h330V655H727V145h406V0H569v291H276L184 0H33zm280 430h256v803z"/><glyph unicode="ç" horiz-adv-x="778" d="M70 346v741q0 168 80.5 264.5T391 1448q161 0 242.5-96.5T715 1087V958H563v138q0 207-168 207-84 0-126-54t-42-153V338q0-99 42-153t126-54q168 0 168 207v186h152V346q0-159-72.5-254T426-12v-64q72 0 112-27.5t40-76.5q0-62-51.5-96.5T383-311q-89 0-138.5 33.5T195-184v16h104v-14q0-25 22-41t62-19q41 0 64.5 17.5T471-176q0 29-26.5 45T371-115h-19v103Q211-2 140.5 93T70 346z"/><glyph unicode="è" horiz-adv-x="737" d="M82 0v1434h590v-146H242V799h350V655H242V145h430V0H82zm94 1731h166l141-211H367z"/><glyph unicode="é" horiz-adv-x="737" d="M82 0v1434h590v-146H242V799h350V655H242V145h430V0H82zm197 1513l143 211h158l-191-211H279z"/><glyph unicode="ê" horiz-adv-x="737" d="M82 0v1434h590v-146H242V799h350V655H242V145h430V0H82zm45 1513l176 207h141l179-207H483l-110 123-107-123H127z"/><glyph unicode="ë" horiz-adv-x="737" d="M82 0v1434h590v-146H242V799h350V655H242V145h430V0H82zm96 1513v185h139v-185H178zm254 0v185h139v-185H432z"/><glyph unicode="ì" horiz-adv-x="323" d="M-51 1724h166l143-211H139zM82 0v1434h160V0H82z"/><glyph unicode="í" horiz-adv-x="323" d="M63 1513l142 211h160l-191-211H63zM82 0v1434h160V0H82z"/><glyph unicode="î" horiz-adv-x="323" d="M-86 1513l176 205h141l179-205H270l-108 121-109-121H-86zM82 0v1434h160V0H82z"/><glyph unicode="ï" horiz-adv-x="323" d="M-35 1513v185h139v-185H-35zM82 0v1434h160V0H82zm137 1513v185h139v-185H219z"/><glyph unicode="ð" horiz-adv-x="811" d="M2 651v129h80v654h336q163 0 244-93.5t81-263.5V354q0-169-81-261.5T418 0H82v651H2zm240-506h174q170 0 170 203v737q0 203-172 203H242V780h161V651H242V145z"/><glyph unicode="ñ" horiz-adv-x="837" d="M80 0v1434h203L614 397v1037h142V0H590L223 1159V0H80zm90 1581q47 119 152 119 43 0 100.5-30.5T508 1640q54 0 82 60l80-53q-48-119-146-119-43-1-101 29.5t-87 29.5q-56 0-86-59z"/><glyph unicode="ò" d="M70 346v741q0 169 83 265t244 96q162 0 246-96t84-265V346q0-167-84-263.5T397-14q-160 0-243.5 96.5T70 346zm120 1385h166l142-211H381zm37-1393q0-100 42.5-153.5T397 131q170 0 170 207v758q0 99-42 153t-128 54q-85 0-127.5-54T227 1096V338z"/><glyph unicode="ó" d="M70 346v741q0 169 83 265t244 96q162 0 246-96t84-265V346q0-167-84-263.5T397-14q-160 0-243.5 96.5T70 346zm157-8q0-100 42.5-153.5T397 131q170 0 170 207v758q0 99-42 153t-128 54q-85 0-127.5-54T227 1096V338zm72 1182l143 211h158l-190-211H299z"/><glyph unicode="ô" d="M70 346v741q0 169 83 265t244 96q162 0 246-96t84-265V346q0-167-84-263.5T397-14q-160 0-243.5 96.5T70 346zm80 1172l176 206h141l178-206H506l-111 120-106-120H150zm77-1180q0-100 42.5-153.5T397 131q170 0 170 207v758q0 99-42 153t-128 54q-85 0-127.5-54T227 1096V338z"/><glyph unicode="õ" d="M70 346v741q0 169 83 265t244 96q162 0 246-96t84-265V346q0-167-84-263.5T397-14q-160 0-243.5 96.5T70 346zm82 1233q48 116 151 119 44 0 102.5-31t86.5-31q26 2 45 16t36 46l78-56q-44-116-145-116-42-1-101 29t-88 30q-55 0-86-61zm75-1241q0-100 42.5-153.5T397 131q170 0 170 207v758q0 99-42 153t-128 54q-85 0-127.5-54T227 1096V338z"/><glyph unicode="ö" d="M70 346v741q0 169 83 265t244 96q162 0 246-96t84-265V346q0-167-84-263.5T397-14q-160 0-243.5 96.5T70 346zm131 1172v184h139v-184H201zm26-1180q0-100 42.5-153.5T397 131q170 0 170 207v758q0 99-42 153t-128 54q-85 0-127.5-54T227 1096V338zm228 1180v184h139v-184H455z"/><glyph unicode="÷" horiz-adv-x="716" d="M61 659v115h594V659H61zm220-305v199h153V354H281zm0 527v198h153V881H281z"/><glyph unicode="ø" d="M70 346v741q0 169 83 265t244 96q128 0 211-64l37 101 72-27-51-135q61-91 61-236V346q0-167-84-263.5T397-14q-131 0-209 63L150-53 80-27l51 138q-61 91-61 235zm157 23l318 848q-42 86-148 86-85 0-127.5-54T227 1096V369zm23-154q43-84 147-84 170 0 170 207v723z"/><glyph unicode="ù" horiz-adv-x="792" d="M76 346v1088h157V338q0-207 168-207 166 0 166 207v1096h150V346q0-169-80.5-265.5T395-16q-159 0-239 96.5T76 346zm112 1378h166l144-211H379z"/><glyph unicode="ú" horiz-adv-x="792" d="M76 346v1088h157V338q0-207 168-207 166 0 166 207v1096h150V346q0-169-80.5-265.5T395-16q-159 0-239 96.5T76 346zm229 1174l144 211h157l-190-211H305z"/><glyph unicode="û" horiz-adv-x="792" d="M76 346v1088h157V338q0-207 168-207 166 0 166 207v1096h150V346q0-169-80.5-265.5T395-16q-159 0-239 96.5T76 346zm76 1172l176 206h141l178-206H508l-111 120-106-120H152z"/><glyph unicode="ü" horiz-adv-x="792" d="M76 346v1088h157V338q0-207 168-207 166 0 166 207v1096h150V346q0-169-80.5-265.5T395-16q-159 0-239 96.5T76 346zm125 1170v184h141v-184H201zm256 0v184h139v-184H457z"/><glyph unicode="ý" horiz-adv-x="831" d="M33 1434h166l223-705 225 705h152L494 514V0H336v514zm295 79l143 211h158l-191-211H328z"/><glyph unicode="þ" horiz-adv-x="772" d="M82 0v1434h160v-207h153q164 0 243-91.5T717 874V705q0-349-334-349H242V0H82zm160 502h141q91 0 133.5 44.5T559 694v191q0 99-39 147.5T395 1081H242V502z"/><glyph unicode="ÿ" horiz-adv-x="831" d="M33 1434h166l223-705 225 705h152L494 514V0H336v514zm190 79v185h139v-185H223zm254 0v185h139v-185H477z"/><glyph unicode="Œ" horiz-adv-x="1181" d="M68 356v721q0 168 78.5 262.5T385 1434h731v-146H711V799h329V655H711V145h405V0H385Q225 0 146.5 94T68 356zm159-8q0-203 160-203h166v1143H387q-160 0-160-203V348z"/><glyph unicode="œ" horiz-adv-x="1181" d="M68 356v721q0 168 78.5 262.5T385 1434h731v-146H711V799h329V655H711V145h405V0H385Q225 0 146.5 94T68 356zm159-8q0-203 160-203h166v1143H387q-160 0-160-203V348z"/><glyph unicode="Ÿ" horiz-adv-x="831" d="M33 1434h166l223-705 225 705h152L494 514V0H336v514zm190 79v185h139v-185H223zm254 0v185h139v-185H477z"/><glyph unicode="ˆ" horiz-adv-x="512" d="M8 1532l178 205h142l176-205H365l-109 121-109-121H8z"/><glyph unicode="˜" horiz-adv-x="524" d="M12 1577q50 119 152 119 43 0 101.5-30.5T352 1636q50 0 82 60l78-54q-45-118-145-118-42 0-100.5 30t-88.5 29q-56 0-86-59z"/><glyph horiz-adv-x="904"/><glyph horiz-adv-x="1808"/><glyph horiz-adv-x="904"/><glyph horiz-adv-x="1808"/><glyph horiz-adv-x="602"/><glyph horiz-adv-x="452"/><glyph horiz-adv-x="301"/><glyph horiz-adv-x="301"/><glyph horiz-adv-x="226"/><glyph horiz-adv-x="361"/><glyph horiz-adv-x="100"/><glyph unicode="‐" horiz-adv-x="542" d="M76 645v143h391V645H76z"/><glyph unicode="‑" horiz-adv-x="542" d="M76 645v143h391V645H76z"/><glyph unicode="‒" horiz-adv-x="542" d="M76 645v143h391V645H76z"/><glyph unicode="–" horiz-adv-x="937" d="M27 651v131h884V651H27z"/><glyph unicode="—" horiz-adv-x="1705" d="M27 651v131h1652V651H27z"/><glyph unicode="‘" horiz-adv-x="327" d="M82 1055v184l78 195h67l-51-181h60v-198H82z"/><glyph unicode="’" horiz-adv-x="327" d="M92 1235v199h154v-183l-80-196h-66l52 180H92z"/><glyph unicode="‚" horiz-adv-x="327" d="M92 0v199h154V14l-80-194h-66L152 0H92z"/><glyph unicode="“" horiz-adv-x="555" d="M82 1055v184l78 195h67l-51-181h60v-198H82zm229 0v184l78 195h66l-49-181h57v-198H311z"/><glyph unicode="”" horiz-adv-x="555" d="M82 1235v199h151v-185l-77-194H90l49 180H82zm227 0v199h154v-185l-78-194h-68l52 180h-60z"/><glyph unicode="„" horiz-adv-x="561" d="M92 0v199h154V14l-80-194h-66L152 0H92zm234 0v199h153V14l-78-194h-67L385 0h-59z"/><glyph unicode="•" horiz-adv-x="671" d="M121 717q0 89 63 152t152 63 152-63 63-152-63-152-152-63-152 63-63 152z"/><glyph unicode="…" horiz-adv-x="776" d="M82 0v199h154V0H82zm229 0v199h154V0H311zm230 0v199h153V0H541z"/><glyph horiz-adv-x="361"/><glyph unicode="‹" horiz-adv-x="374" d="M49 719l127 526h152L201 719l127-549H176z"/><glyph unicode="›" horiz-adv-x="374" d="M49 172l125 547-125 526h150l129-526-129-547H49z"/><glyph horiz-adv-x="452"/><glyph unicode="€" horiz-adv-x="813" d="M27 567v84h90v142H27v81h90v213q0 169 78 265t237 96 237.5-96 78.5-265v-92H598v101q0 207-162 207t-162-207V874h357v-81H274V651h357v-84H274V338q0-207 162-207t162 207v111h150V346q0-168-78.5-264T432-14 195 82t-78 264v221H27z"/><glyph unicode="™" horiz-adv-x="1193" d="M25 1339v95h436v-95H295V705H193v634H25zm528-634v729h143l150-570 143 570h144V705h-99v575L893 709h-98l-150 567V705h-92z"/><glyph unicode="◼" horiz-adv-x="1433" d="M0 0v1434h1434V0H0z"/></font>
</defs>
</svg>
